# xmcd
#
# Track frame offsets: 
#        150
#        15732
#        35289
#        46846
#        72214
#        101393
#        119053
#        142568
#        158843
#
# Disc length: 2476 seconds
#
# Revision: 0
# Processed by: cddbd v1.5.2PL0 Copyright (c) Steve Scherf et al.
# Submitted via: ExactAudioCopy v0.95b3
#
DISCID=6909aa09
DTITLE=Silver Apples   - Contact (1968)(2009 Phoenix Rem.) 
DYEAR=1900
DGENRE=
TTITLE0=You and I
TTITLE1=Water
TTITLE2=Ruby
TTITLE3=Gypsy Love
TTITLE4=You're Not Foolin' Me
TTITLE5=I Have Known Love
TTITLE6=A Pox on You
TTITLE7=Confusion
TTITLE8=Fantasies
EXTD=
EXTT0=
EXTT1=
EXTT2=
EXTT3=
EXTT4=
EXTT5=
EXTT6=
EXTT7=
EXTT8=
PLAYORDER=
